<svg width="36" height="36" viewBox="0 0 36 36" fill="none" xmlns="http://www.w3.org/2000/svg">
<path d="M36 18C36 27.9411 27.9411 36 18 36C8.05887 36 0 27.9411 0 18C0 8.05887 8.05887 0 18 0C27.9411 0 36 8.05887 36 18Z" fill="#1E80FF"/>
<path d="M11.1426 11.5716C11.1426 10.3881 12.102 9.42871 13.2854 9.42871H22.714C23.8975 9.42871 24.8569 10.3881 24.8569 11.5716V24.4287C24.8569 25.6122 23.8975 26.5716 22.714 26.5716H13.2854C12.102 26.5716 11.1426 25.6122 11.1426 24.4287V11.5716Z" fill="white"/>
<path fill-rule="evenodd" clip-rule="evenodd" d="M9.42871 14.5715C9.42871 14.0981 9.81247 13.7144 10.2859 13.7144H12.0001C12.4735 13.7144 12.8573 14.0981 12.8573 14.5715C12.8573 15.0449 12.4735 15.4286 12.0001 15.4286H10.2859C9.81247 15.4286 9.42871 15.0449 9.42871 14.5715Z" fill="#8EBFFF"/>
<path fill-rule="evenodd" clip-rule="evenodd" d="M9.42871 18.0002C9.42871 17.5268 9.81247 17.1431 10.2859 17.1431H12.0001C12.4735 17.1431 12.8573 17.5268 12.8573 18.0002C12.8573 18.4736 12.4735 18.8574 12.0001 18.8574H10.2859C9.81247 18.8574 9.42871 18.4736 9.42871 18.0002Z" fill="#8EBFFF"/>
<path fill-rule="evenodd" clip-rule="evenodd" d="M9.42871 21.4284C9.42871 20.955 9.81247 20.5713 10.2859 20.5713H12.0001C12.4735 20.5713 12.8573 20.955 12.8573 21.4284C12.8573 21.9018 12.4735 22.2856 12.0001 22.2856H10.2859C9.81247 22.2856 9.42871 21.9018 9.42871 21.4284Z" fill="#8EBFFF"/>
<path fill-rule="evenodd" clip-rule="evenodd" d="M14.8325 18.6419C14.8325 18.3691 14.9409 18.1075 15.1338 17.9146L18.4767 14.5716C19.1462 13.9021 20.2316 13.9021 20.9011 14.5716L21.9242 15.5947C22.5936 16.2641 22.5936 17.3496 21.9242 18.019L18.5812 21.362C18.3883 21.5549 18.1267 21.6633 17.8539 21.6633L16.1182 21.6633C15.4081 21.6632 14.8324 21.0876 14.8325 20.3775L14.8325 18.6419ZM16.5468 18.9259L16.5468 19.949L17.5699 19.949L20.712 16.8069L19.6889 15.7838L16.5468 18.9259Z" fill="#1E80FF"/>
</svg>
