<svg width="117" height="24" viewBox="0 0 117 24" fill="none" xmlns="http://www.w3.org/2000/svg">
<path d="M15.0742 14.9106H15.0774L24.4426 7.52102L21.9025 5.4812L15.0774 10.8694H15.0742L15.071 10.8726L8.24594 5.48761L5.70898 7.52744L15.071 14.9138L15.0742 14.9106Z" fill="#1E80FF"/>
<path d="M15.0742 5.80516L18.7048 2.91861L15.0742 0.00641346L15.071 0L11.4468 2.9122L15.071 5.80195L15.0742 5.80516Z" fill="#1E80FF"/>
<path d="M15.0742 19.9588L15.071 19.9621L2.53695 10.074L0 12.1107L0.243751 12.3063L15.0742 24L24.449 16.6073L30.1515 12.1075L27.6114 10.0676L15.0742 19.9588Z" fill="#1E80FF"/>
<path d="M114.246 15.7862H112.424L111.363 19.7792H108.707V14.3622H116.026V12.627H108.707V9.55447H114.063V7.81934H101.532V9.55447H106.889V12.627H99.5695V14.3622H106.889V19.7792H104.23L103.168 15.7862H101.346L102.418 19.7792H99.0371V21.5144H116.558V19.7792H113.178L114.246 15.7862Z" fill="#323232"/>
<path d="M111.876 2.84172L111.6 2.521H103.989L103.713 2.84172C102.256 4.49738 100.61 5.97738 98.8096 7.25172V9.38781C99.605 8.87785 103.014 6.61988 104.852 4.27536H110.773C112.607 6.61988 116.02 8.87785 116.815 9.38781V7.25172C115.002 5.97952 113.345 4.49944 111.876 2.84172Z" fill="#323232"/>
<path d="M81.3461 7.31258H82.7092V5.57427H81.3461V2.47607H79.6335V5.57427H78.2832V7.31258H79.6367V12.6784L78.2832 13.1467V15.071L79.6367 14.6028V17.7747C79.5784 19.0622 79.3354 20.3346 78.915 21.5529H80.7111C81.0954 20.3285 81.3112 19.0574 81.3526 17.7747V14.0094L82.7189 13.5347V11.5911L81.3526 12.0658L81.3461 7.31258Z" fill="#323232"/>
<path d="M85.0184 2.47607H83.7098V17.7812C83.72 19.0594 83.5593 20.3333 83.2319 21.569H85.0184C85.3039 20.3268 85.4449 19.0557 85.4385 17.7812V8.37742H96.2759V2.47607H85.0184ZM94.5504 6.64552H85.445V4.21439H94.5472L94.5504 6.64552Z" fill="#323232"/>
<path d="M94.5471 20.0615H92.1994V15.1576H94.3033H94.8871H95.923V10.1286H94.3033V13.6598H92.1994V9.55127H90.5797V13.6598H88.5174V10.1286H86.8978V15.1576H87.6835H88.5174H90.5797V20.0615H88.2576V16.4341H86.6348V21.5593H87.6739H88.2576H94.5471H94.871H96.1668V16.4341H94.5471V20.0615Z" fill="#323232"/>
<path d="M45.4312 2.50171V4.14704L48.5069 5.24072L45.4312 6.33119V7.97652L50.8194 6.06178L56.2076 7.97652V6.33119L53.1318 5.24072L56.2076 4.14704V2.50171L50.8194 4.41645L45.4312 2.50171Z" fill="#323232"/>
<path d="M68.5298 10.026H75.9386V8.12411H68.5298V2.40234H66.4547V8.12411H59.046V10.026H66.4547V19.6992H58.0806V21.6011H76.904V19.6992H68.5298V10.026Z" fill="#323232"/>
<path d="M41.9542 4.62177L44.8215 4.44216V2.77759L37.4416 3.24264V4.90721L40.3089 4.7244V7.29022H37.355V8.93234H40.3089V21.569H41.9542V8.93234H44.9081V7.29022H41.9542V4.62177Z" fill="#323232"/>
<path d="M49.4177 7.72314H47.7082L47.2945 8.88421H45.4278V10.4878H46.7268L45.043 15.2282H46.1848V20.703H47.7435V14.4392H50.2837V21.5818H51.929V14.4392H54.3954V18.0506C54.3887 18.975 54.1552 19.8835 53.7154 20.6966H55.4698C55.8363 19.8627 56.0253 18.9616 56.0247 18.0506V13.4514V12.9671H51.929V11.3634H50.2837V12.9671H47.5575L48.4555 10.4782H56.2235V8.87458H49.0072L49.4177 7.72314Z" fill="#323232"/>
<path d="M37.3394 21.107H38.9654L39.6678 9.79492H38.0417L37.3394 21.107Z" fill="#323232"/>
<path d="M42.6729 9.79492L43.1572 19.9684H44.7832L44.2989 9.79492H42.6729Z" fill="#323232"/>
</svg>
